<svg width="125" height="125" viewBox="0 0 125 125" fill="none" xmlns="http://www.w3.org/2000/svg">
<path d="M66.8873 28.1397C71.4994 17.0705 82.1073 9.46048 94.56 9.46048C111.164 9.46048 123.155 23.758 124.769 40.5924C124.769 40.5924 125.692 44.7432 123.847 52.3532C121.31 62.7305 115.776 71.9547 107.935 78.873L66.8873 115.54L26.7618 79.1037C18.9212 72.1855 13.3866 62.9611 10.8499 52.5838C9.00517 44.9738 9.92744 40.823 9.92744 40.823C11.3112 23.7582 23.3027 9.46048 39.9062 9.46048C52.3591 9.46048 62.2752 17.3011 66.8873 28.1397Z" fill="#EEDBFF"/>
<path d="M59.7385 28.1397C64.3506 17.0705 74.9585 9.46048 87.4112 9.46048C104.015 9.46048 116.006 23.758 117.621 40.5924C117.621 40.5924 118.543 44.7432 116.698 52.3532C114.161 62.7305 108.627 71.9547 100.786 78.873L59.7385 115.54L19.3825 79.1037C11.5418 72.1855 6.00724 62.9611 3.47057 52.5838C1.62579 44.9738 2.54806 40.823 2.54806 40.823C3.93183 23.7582 15.9233 9.46048 32.7574 9.46048C44.9795 9.46048 54.8958 17.3011 59.7385 28.1397Z" fill="#EEDBFF"/>
<path d="M59.0466 28.1397C63.6587 17.0705 68.2708 9.46048 80.7235 9.46048C97.327 9.46048 109.319 23.758 110.933 40.5924C110.933 40.5924 111.855 44.7432 110.01 52.3532C107.474 62.7305 101.939 71.9547 94.0985 78.873L59.0466 115.54L18.9212 79.1037C11.0806 72.1855 6.4685 62.9611 3.93183 52.5838C2.08705 44.9738 3.00932 40.823 3.00932 40.823C4.39284 23.7582 15.462 9.46048 32.0658 9.46048C44.5185 9.46048 54.4346 17.3011 59.0466 28.1397Z" fill="#EEDBFF"/>
<path d="M2.77869 40.823C4.39284 23.7582 16.3845 9.46048 32.9881 9.46048C34.1412 9.46048 35.0635 9.46048 36.2166 9.69111C21.4579 11.5359 10.8499 24.9111 9.46643 40.823C9.46643 40.823 8.54391 44.9738 10.3889 52.5838C12.9256 62.9611 18.4602 71.9547 26.3008 79.1037L60.8917 115.309L60.661 115.54L19.8435 79.1037C12.0028 72.1855 6.46825 62.9611 3.93158 52.5838C2.0868 44.9738 2.77869 40.823 2.77869 40.823Z" fill="white"/>
<path d="M59.7385 117.846C59.2773 117.846 58.5854 117.615 58.1244 117.154L17.7681 80.7178C9.46618 73.1078 3.7012 63.653 1.16454 53.0451C-0.449617 45.6657 0.0113928 41.2843 0.242021 40.3617C1.85617 21.2215 15.6927 7.15443 32.7574 7.15443C44.0573 7.15443 53.9733 13.1503 59.7383 23.0663C65.5035 13.1503 76.1114 7.15443 87.411 7.15443C104.476 7.15443 118.082 21.2213 119.926 40.3617C120.157 41.2843 120.618 45.6657 119.004 53.0451C116.467 63.653 110.702 73.1078 102.4 80.7178L61.122 117.384C60.6608 117.615 60.1995 117.846 59.7385 117.846ZM32.7574 11.7665C17.9987 11.7665 6.23762 23.9886 4.8541 41.0534V41.284C4.8541 41.284 4.16221 45.2042 5.77661 52.1226C8.08265 61.808 13.3866 70.5711 20.9966 77.4893L59.7385 112.541L99.1721 77.4893C106.782 70.5711 112.086 61.808 114.392 52.1226C116.006 45.2045 115.315 41.284 115.315 41.284C113.7 23.9888 101.939 11.7665 87.1806 11.7665C76.1114 11.7665 66.1954 18.454 61.5833 29.0619C61.122 29.9844 60.4302 30.4455 59.5079 30.4455C58.5856 30.4455 57.6631 29.9842 57.4325 29.0619C53.0508 18.4543 43.3654 11.7665 32.7574 11.7665Z" fill="#C00010"/>
<path d="M16.1539 46.5882C14.7704 46.5882 13.8479 45.6657 13.8479 44.2822C13.8479 31.5988 24.2252 21.2215 36.9085 21.2215C38.292 21.2215 39.2146 22.1441 39.2146 23.5276C39.2146 24.9111 38.292 25.8336 36.9085 25.8336C26.7618 25.8336 18.46 34.1355 18.46 44.2822C18.46 45.6657 17.5374 46.5882 16.1539 46.5882Z" fill="#C00010"/>
</svg>
