<svg width="48" height="48" viewBox="0 0 48 48" fill="none" xmlns="http://www.w3.org/2000/svg">
<path fill-rule="evenodd" clip-rule="evenodd" d="M24 17.7778C23.76 17.7778 23.5307 17.6809 23.3636 17.5084L15.8765 9.82133C13.6747 7.58222 13.6747 3.93422 15.8791 1.69156C16.9511 0.601778 18.3787 0.000888825 19.8969 0.000888825C21.416 -6.44682e-08 22.8436 0.600889 23.9156 1.69156L23.9991 1.768L24.1165 1.66044C25.1574 0.600889 26.584 0 28.1031 0C29.6222 0 31.0489 0.600889 32.1209 1.69156C34.3254 3.93422 34.3254 7.58133 32.1218 9.824L24.6365 17.5084C24.4694 17.6809 24.24 17.7778 24 17.7778Z" fill="black"/>
<path fill-rule="evenodd" clip-rule="evenodd" d="M15.1111 48.0001C6.77867 48.0001 0 41.2214 0 32.8889C0 24.5565 6.77867 17.7778 15.1111 17.7778C17.152 17.7778 19.1316 18.1778 20.9938 18.9663C21.4453 19.1583 21.6569 19.6792 21.4658 20.1307C21.2747 20.5832 20.752 20.7956 20.3004 20.6036C18.6587 19.9085 16.912 19.5556 15.1111 19.5556C7.75911 19.5556 1.77778 25.5361 1.77778 32.8889C1.77778 40.2418 7.75911 46.2223 15.1111 46.2223C22.4631 46.2223 28.4444 40.2418 28.4444 32.8889C28.4444 29.9805 27.5244 27.2152 25.784 24.8952C25.4898 24.5023 25.5689 23.9458 25.9618 23.6507C26.3564 23.3574 26.912 23.4356 27.2062 23.8294C29.1796 26.4596 30.2222 29.5921 30.2222 32.8889C30.2222 41.2214 23.4436 48.0001 15.1111 48.0001Z" fill="black"/>
<path fill-rule="evenodd" clip-rule="evenodd" d="M32.8889 48.0001C30.672 48.0001 28.5351 47.5307 26.5378 46.6045C26.0924 46.3974 25.8987 45.8694 26.1058 45.4241C26.3129 44.9778 26.8409 44.7841 27.2862 44.9912C29.0471 45.8081 30.9315 46.2223 32.8889 46.2223C40.2409 46.2223 46.2222 40.2418 46.2222 32.8889C46.2222 25.5361 40.2409 19.5556 32.8889 19.5556C25.5369 19.5556 19.5555 25.5361 19.5555 32.8889C19.5555 35.7974 20.4755 38.5627 22.216 40.8827C22.5102 41.2756 22.4311 41.8321 22.0382 42.1272C21.6444 42.4232 21.088 42.3432 20.7938 41.9485C18.8204 39.3183 17.7778 36.1858 17.7778 32.8889C17.7778 24.5565 24.5564 17.7778 32.8889 17.7778C41.2213 17.7778 48 24.5565 48 32.8889C48 41.2214 41.2213 48.0001 32.8889 48.0001Z" fill="black"/>
</svg>
