<svg width="48" height="48" viewBox="0 0 48 48" fill="none" xmlns="http://www.w3.org/2000/svg">
<path d="M8.33686 38.332C10.8599 36.5928 13.3701 35.2446 15.8672 34.2875C18.3644 33.3304 21.0753 32.8518 24 32.8518C26.9247 32.8518 29.6421 33.3304 32.1523 34.2875C34.6624 35.2446 37.179 36.5928 39.702 38.332C41.5385 36.2041 42.9028 33.9572 43.7951 31.5915C44.6875 29.2257 45.1336 26.6952 45.1336 24C45.1336 18.0405 43.1012 13.0283 39.0365 8.96352C34.9717 4.89875 29.9595 2.86636 24 2.86636C18.0405 2.86636 13.0283 4.89875 8.96352 8.96352C4.89875 13.0283 2.86636 18.0405 2.86636 24C2.86636 26.6952 3.319 29.2257 4.22426 31.5915C5.12953 33.9572 6.5004 36.2041 8.33686 38.332ZM23.9863 25.4332C21.7153 25.4332 19.8049 24.6537 18.2551 23.0948C16.7053 21.5358 15.9304 19.6209 15.9304 17.3498C15.9304 15.0788 16.7098 13.1684 18.2688 11.6186C19.8277 10.0688 21.7427 9.29396 24.0137 9.29396C26.2847 9.29396 28.1951 10.0734 29.7449 11.6323C31.2947 13.1912 32.0696 15.1062 32.0696 17.3772C32.0696 19.6483 31.2902 21.5587 29.7312 23.1085C28.1723 24.6583 26.2573 25.4332 23.9863 25.4332ZM24.0296 48C20.703 48 17.5821 47.3733 14.6669 46.1198C11.7517 44.8663 9.20516 43.149 7.02722 40.9676C4.84932 38.7862 3.13365 36.2446 1.88022 33.3427C0.626738 30.4408 0 27.325 0 23.9953C0 20.6656 0.626738 17.5514 1.88022 14.6527C3.13365 11.7539 4.85104 9.21379 7.0324 7.0324C9.21379 4.85104 11.7554 3.13365 14.6573 1.88021C17.5592 0.626738 20.675 0 24.0047 0C27.3344 0 30.4486 0.626738 33.3473 1.88021C36.2461 3.13365 38.7862 4.85104 40.9676 7.0324C43.149 9.21379 44.8663 11.7546 46.1198 14.6547C47.3733 17.5548 48 20.6601 48 23.9704C48 27.297 47.3733 30.4179 46.1198 33.3331C44.8663 36.2483 43.149 38.7948 40.9676 40.9728C38.7862 43.1507 36.2454 44.8663 33.3453 46.1198C30.4452 47.3733 27.3399 48 24.0296 48ZM24 45.1336C26.3482 45.1336 28.664 44.7603 30.9474 44.0138C33.2308 43.2672 35.3814 42.0599 37.3992 40.3919C35.3814 38.9085 33.2446 37.7587 30.9887 36.9425C28.7328 36.1263 26.4032 35.7182 24 35.7182C21.5968 35.7182 19.2631 36.1223 16.9992 36.9303C14.7352 37.7384 12.6105 38.8923 10.6251 40.3919C12.6267 42.0599 14.7692 43.2672 17.0526 44.0138C19.336 44.7603 21.6518 45.1336 24 45.1336ZM24.0034 22.5668C25.5137 22.5668 26.7579 22.0766 27.736 21.0962C28.7142 20.1158 29.2033 18.8705 29.2033 17.3602C29.2033 15.8499 28.7131 14.6056 27.7326 13.6275C26.7523 12.6493 25.5069 12.1603 23.9966 12.1603C22.4863 12.1603 21.2421 12.6505 20.2639 13.6309C19.2858 14.6113 18.7967 15.8566 18.7967 17.3669C18.7967 18.8772 19.2869 20.1214 20.2674 21.0996C21.2477 22.0777 22.4931 22.5668 24.0034 22.5668Z" fill="black"/>
</svg>
